HIERARCHY
ROOT Hips
{
	OFFSET -3.958830 18.904000 13.208200
	CHANNELS 6 Xposition Yposition Zposition Zrotation Yrotation Xrotation 
	JOINT LHipJoint
	{
		OFFSET 0.000000 0.000000 0.000000
		CHANNELS 3 Zrotation Yrotation Xrotation
		JOINT LeftUpLeg
		{
			OFFSET 1.800000 -1.400000 0.085000
			CHANNELS 3 Zrotation Yrotation Xrotation
			JOINT LeftLeg
			{
				OFFSET 2.215000 -6.000000 0.000000
				CHANNELS 3 Zrotation Yrotation Xrotation
				JOINT LeftFoot
				{
					OFFSET 2.500000 -6.900000 0.000000
					CHANNELS 3 Zrotation Yrotation Xrotation
					JOINT LeftToeBase
					{
						OFFSET 0.200000 -0.500000 1.950000
						CHANNELS 3 Zrotation Yrotation Xrotation
						End Site
						{
							OFFSET 0.000000 0.000000 0.000000
						}
					}
				}
			}
		}
	}
	JOINT RHipJoint
	{
		OFFSET 0.000000 0.000000 0.000000
		CHANNELS 3 Zrotation Yrotation Xrotation
		JOINT RightUpLeg
		{
			OFFSET -1.800000 -1.400000 0.085000
			CHANNELS 3 Zrotation Yrotation Xrotation
			JOINT RightLeg
			{
				OFFSET -2.215000 -6.000000 0.000000
				CHANNELS 3 Zrotation Yrotation Xrotation
				JOINT RightFoot
				{
					OFFSET -2.500000 -6.900000 0.000000
					CHANNELS 3 Zrotation Yrotation Xrotation
					JOINT RightToeBase
					{
						OFFSET -0.200000 -0.500000 1.950000
						CHANNELS 3 Zrotation Yrotation Xrotation
						End Site
						{
							OFFSET 0.000000 0.000000 0.000000
						}
					}
				}
			}
		}
	}
	JOINT LowerBack
	{
		OFFSET 0.000000 0.000000 0.000000
		CHANNELS 3 Zrotation Yrotation Xrotation
		JOINT Spine
		{
			OFFSET -0.087000 1.940000 -0.288900
			CHANNELS 3 Zrotation Yrotation Xrotation
			JOINT Spine1
			{
				OFFSET 0.000000 1.950000 0.060000
				CHANNELS 3 Zrotation Yrotation Xrotation
				JOINT Neck
				{
					OFFSET 0.000000 0.000000 0.000000
					CHANNELS 3 Zrotation Yrotation Xrotation
					JOINT Neck1
					{
						OFFSET 0.000000 1.600000 0.340000
						CHANNELS 3 Zrotation Yrotation Xrotation
						JOINT Head
						{
							OFFSET 0.000000 1.667000 -0.240000
							CHANNELS 3 Zrotation Yrotation Xrotation
							End Site
							{
								OFFSET 0.000000 0.000000 0.000000
							}
						}
					}
				}
				JOINT LeftShoulder
				{
					OFFSET 0.000000 0.000000 0.000000
					CHANNELS 3 Zrotation Yrotation Xrotation
					JOINT LeftArm
					{
						OFFSET 2.700000 1.550000 -0.730000
						CHANNELS 3 Zrotation Yrotation Xrotation
						JOINT LeftForeArm
						{
							OFFSET 5.450000 0.000000 0.000000
							CHANNELS 3 Zrotation Yrotation Xrotation
							JOINT LeftHand
							{
								OFFSET 3.450000 0.000000 0.000000
								CHANNELS 3 Zrotation Yrotation Xrotation
								JOINT LeftHandIndex1
								{
									OFFSET 0.750000 0.000000 0.000000
									CHANNELS 3 Zrotation Yrotation Xrotation
									End Site
									{
										OFFSET 0.000000 0.000000 0.000000
									}
								}
							}
						}
					}
				}
				JOINT RightShoulder
				{
					OFFSET 0.000000 0.000000 0.000000
					CHANNELS 3 Zrotation Yrotation Xrotation
					JOINT RightArm
					{
						OFFSET -2.700000 1.550000 -0.730000
						CHANNELS 3 Zrotation Yrotation Xrotation
						JOINT RightForeArm
						{
							OFFSET -5.450000 0.000000 0.000000
							CHANNELS 3 Zrotation Yrotation Xrotation
							JOINT RightHand
							{
								OFFSET -3.450000 0.000000 0.000000
								CHANNELS 3 Zrotation Yrotation Xrotation
								JOINT RightHandIndex1
								{
									OFFSET -0.750000 0.000000 0.000000
									CHANNELS 3 Zrotation Yrotation Xrotation
									End Site
									{
										OFFSET 0.000000 0.000000 0.000000
									}
								}
							}
						}
					}
				}
			}
		}
	}
}
MOTION
Frames: 10
Frame Time: 0.016667
-0.935070 16.574040 -0.853120 0.389363 -29.451074 -6.718586 -15.175694 13.406868 3.362153 13.830911 -6.724662 -19.659586 -5.154289 11.169713 45.487699 0.323897 8.653939 1.529758 1.018370 0.595310 0.773610 18.234572 -10.109917 3.150611 -12.373551 2.504218 -34.195770 8.151800 -10.954797 38.583739 -0.763251 -5.971536 2.398989 0.243530 -0.037280 0.346380 -3.285131 -3.090268 -8.075693 9.091222 -9.042657 37.468811 -3.129164 -5.997504 17.044044 3.027421 2.604080 -10.536189 1.921717 -1.182321 40.762452 -0.356070 1.121440 -17.604490 -2.410599 -16.930150 4.128855 4.612070 -12.771461 -8.397341 111.992728 -32.577817 -51.768995 -3.486703 3.110819 0.618510 -0.011550 0.170810 0.434340 -2.769705 13.297678 6.455443 3.143137 7.982097 -11.737109 -104.559629 35.369583 -51.507466 1.787939 -1.903170 0.062490 0.022000 -0.463430 -0.256250 
-0.902890 16.560950 -0.880270 0.351108 -29.421909 -5.728259 -15.158888 13.144624 3.557811 14.650844 -7.305870 -21.167659 -7.042922 12.089761 45.714601 0.370556 8.909105 1.427043 1.025430 0.584450 0.796970 18.284713 -10.009204 3.195221 -12.606153 2.427320 -35.380853 8.527551 -11.087002 38.150780 -0.769484 -5.895878 2.409074 0.224760 -0.070110 0.339990 -3.454658 -2.902485 -8.177750 10.426986 -10.154520 37.903522 -3.755938 -6.743328 17.311337 2.980592 1.914829 -10.740110 0.447597 -0.495400 43.783344 0.302820 1.109480 -18.082900 -2.908170 -17.361459 4.539007 4.023856 -12.168105 -8.104240 111.797463 -36.397050 -56.236357 -3.437700 3.021649 0.658510 -0.051460 0.194510 0.418240 -2.061341 13.833546 6.376436 2.823381 9.132551 -11.430261 -106.340792 36.699551 -54.485588 1.784656 -1.823175 0.067430 0.019560 -0.462710 -0.270470 
-0.886660 16.539680 -0.896690 -0.152219 -29.511986 -4.374552 -15.153314 12.901844 3.687812 15.950098 -7.458187 -22.397031 -8.657216 12.912537 45.386220 0.355418 9.105521 1.330831 0.986450 0.524580 0.798280 18.327732 -9.868081 3.308224 -12.683707 2.727600 -36.802164 9.229711 -11.416604 38.129179 -0.768793 -5.926555 2.385817 0.195940 -0.094960 0.320930 -3.597433 -2.718995 -8.281322 11.988293 -11.105388 38.021701 -4.295096 -7.107777 17.189112 3.182653 1.621142 -10.929375 -0.168233 -0.389631 45.532748 -0.369270 1.232770 -18.643000 -3.666147 -17.572237 4.941219 3.730809 -11.073329 -7.562850 114.704252 -38.788529 -62.184900 -3.427274 2.953096 0.696980 -0.071940 0.188350 0.368290 -1.628922 14.017995 6.306069 2.637834 9.635473 -11.324573 -107.243103 37.296200 -55.788257 1.775012 -1.750484 0.041780 0.022510 -0.420780 -0.305880 
-0.876350 16.524400 -0.912720 -0.479598 -29.451878 -3.756329 -15.157671 12.709756 3.820711 17.244010 -7.648132 -23.260773 -10.049035 13.720003 45.501170 0.422956 9.344501 1.246993 0.975100 0.505910 0.813070 18.351758 -9.771371 3.354894 -12.819965 2.804077 -37.580052 9.750771 -11.741666 38.246578 -0.781110 -5.989464 2.372164 0.172360 -0.119290 0.309650 -3.674519 -2.583047 -8.371126 12.948421 -11.926768 38.587801 -4.802939 -7.410923 16.997982 3.469410 1.634098 -11.177107 -0.188339 -0.933349 46.494835 -1.526220 1.018210 -18.270720 -4.195414 -18.096653 5.304294 3.855863 -9.747688 -7.578853 116.360439 -39.654141 -65.089567 -3.411224 2.944217 0.694270 -0.084470 0.194190 0.355320 -1.628133 14.439123 6.451933 2.428032 9.654027 -11.530770 -106.986309 37.114099 -55.313219 1.794791 -1.735254 0.050570 0.014470 -0.426020 -0.311830 
-0.878520 16.513510 -0.927990 -0.736586 -29.132390 -3.289444 -15.163441 12.567579 3.919832 18.473861 -7.728617 -23.848661 -11.241119 14.276734 45.110802 0.443061 9.504989 1.193959 0.920690 0.431660 0.789560 18.367600 -9.678103 3.395524 -13.288354 2.756749 -37.945312 10.885672 -12.300083 38.050939 -0.792537 -6.092999 2.340052 0.123190 -0.104740 0.309160 -3.725137 -2.524969 -8.448054 13.726215 -12.607470 38.962517 -5.208656 -7.629266 16.689198 3.611571 1.490328 -11.536825 -0.597616 -1.262665 47.012313 -1.863370 0.521480 -18.023670 -4.407732 -18.647120 5.691347 3.210407 -8.888217 -7.785068 116.840312 -39.557133 -65.786237 -3.432777 2.917178 0.709720 -0.083630 0.183110 0.329250 -1.754125 14.971935 6.793503 2.513663 8.881976 -11.962159 -107.256068 36.570603 -54.990743 1.799991 -1.713454 0.036750 0.023700 -0.384950 -0.318900 
-0.891070 16.499700 -0.946700 -0.742677 -28.990778 -3.115640 -15.196403 12.493141 4.013259 19.435460 -7.798763 -24.221950 -12.368326 14.827404 44.776324 0.452852 9.672680 1.132890 0.870680 0.365580 0.761140 18.356826 -9.546988 3.414391 -13.574763 2.775969 -38.225312 11.624606 -12.696637 38.113691 -0.797163 -6.186553 2.315178 0.085350 -0.085460 0.302490 -3.681605 -2.651734 -8.522513 13.335191 -12.794844 39.481359 -5.023047 -7.788854 16.351029 3.540164 1.115633 -11.767800 -1.404387 -0.988936 47.029071 -1.357080 0.273420 -18.342920 -4.311107 -18.877337 5.920637 2.508798 -8.120230 -8.182331 116.669434 -38.713781 -64.837088 -3.458161 2.899726 0.730050 -0.082300 0.164530 0.300260 -1.769990 15.483870 6.956972 2.146202 8.508364 -12.271743 -107.433964 36.373838 -54.877517 1.792895 -1.676457 0.014920 0.037580 -0.339010 -0.329520 
-0.906530 16.495370 -0.956210 -0.974164 -29.020692 -3.147292 -15.213331 12.512550 4.054637 20.318905 -7.638879 -24.078508 -12.939037 15.096065 44.313919 0.469360 9.725810 1.108989 0.846210 0.319990 0.753490 18.339186 -9.503965 3.400448 -13.337386 2.928245 -38.062716 11.597775 -12.743610 38.339523 -0.811337 -6.196672 2.309877 0.045820 -0.096210 0.320410 -3.622014 -2.761019 -8.563904 13.077657 -12.692074 40.062117 -4.717352 -7.593989 15.774713 3.495735 1.220380 -12.145166 -1.390428 -1.202464 47.508516 -1.284400 0.127340 -18.521160 -4.636670 -19.558289 6.170076 2.789403 -7.514293 -8.394886 116.780748 -38.611068 -64.749469 -3.457330 2.905306 0.756400 -0.095410 0.177360 0.288870 -1.477707 16.156622 7.345728 1.829592 7.246236 -12.637954 -107.915782 36.348954 -55.185283 1.803869 -1.665394 0.018970 0.015980 -0.324970 -0.335910 
-0.920750 16.486950 -0.960330 -1.168763 -28.876600 -3.229848 -15.221278 12.512549 4.083473 20.808845 -7.602467 -24.081737 -13.086279 15.295890 44.465826 0.495967 9.798815 1.096051 0.820000 0.290050 0.743830 18.332832 -9.486402 3.392633 -13.000393 3.064613 -38.043265 11.335049 -12.782164 38.877908 -0.828034 -6.230460 2.310950 0.021360 -0.098310 0.307030 -3.595754 -2.796417 -8.595782 12.930021 -12.589826 40.374297 -4.574288 -7.398044 15.149157 3.418475 1.415195 -12.371675 -1.154065 -1.550218 47.613759 -1.236590 0.020530 -19.046530 -4.915339 -20.027142 6.259210 3.511168 -7.175941 -8.426070 117.170662 -38.859900 -65.252123 -3.444634 2.879402 0.776110 -0.108780 0.185240 0.287620 -1.160654 16.521859 7.626942 1.738776 6.235977 -12.848858 -108.751546 36.203041 -55.723233 1.817876 -1.648209 0.005230 0.027680 -0.322780 -0.338430 
-0.935070 16.481120 -0.959430 -1.085663 -28.507172 -3.697346 -15.211655 12.490373 4.073279 20.909011 -7.650832 -23.866224 -13.063454 15.395119 44.734318 0.466616 9.879602 1.067494 0.807310 0.264750 0.739730 18.342588 -9.531014 3.369491 -12.927713 3.013587 -37.874225 10.977938 -12.891178 39.662657 -0.838530 -6.350155 2.265712 0.028890 -0.088000 0.292940 -3.623964 -2.705246 -8.587652 12.786952 -12.375209 40.280208 -4.750731 -7.254545 15.029894 3.211146 1.753316 -12.205887 -0.459672 -1.845836 46.786170 -0.331280 -0.195410 -19.486710 -4.802773 -20.118610 5.954050 4.742084 -7.877971 -8.233235 116.748097 -40.052182 -66.082813 -3.447094 2.844047 0.795610 -0.106290 0.165060 0.274650 -0.897701 16.275322 7.671739 2.433175 5.997475 -12.868873 -109.411735 36.133317 -56.409151 1.802644 -1.647793 -0.029720 0.041340 -0.304600 -0.358570 
-0.950840 16.477050 -0.949780 -0.903410 -28.205591 -4.737030 -15.204162 12.587612 3.990852 20.754856 -7.577206 -22.984038 -12.532186 15.226890 44.975980 0.455049 9.871814 1.077023 0.812350 0.275640 0.727940 18.333819 -9.604308 3.315799 -13.056742 2.815574 -37.147241 10.696164 -13.089420 40.578326 -0.869790 -6.528149 2.206168 0.045340 -0.069990 0.294730 -3.596450 -2.752225 -8.538083 12.217172 -12.120376 40.535840 -4.743783 -7.259395 15.089183 3.063719 1.595732 -11.898643 -0.731320 -1.777324 45.619339 0.175050 -0.393760 -19.863560 -4.952353 -19.975371 5.594928 5.680550 -8.475251 -8.143855 116.370521 -41.139141 -66.892484 -3.455395 2.827791 0.790050 -0.096930 0.155890 0.284970 -0.445421 16.216639 7.576110 2.292144 5.853055 -12.904899 -109.567420 36.418210 -56.958352 1.790849 -1.651903 -0.037140 0.051690 -0.302600 -0.352440 
